<svg xmlns="http://www.w3.org/2000/svg" viewBox="-20 -10 460 480" role="img" aria-label="Marito, mascota concepto de Aqua Mar Distribuidora">
  <defs>
    <linearGradient id="am-cuerpo" x1="0%" y1="0%" x2="100%" y2="100%">
      <stop offset="0%" stop-color="#0B4DA2"/>
      <stop offset="100%" stop-color="#0B90A4"/>
    </linearGradient>
    <linearGradient id="am-ola" x1="0%" y1="0%" x2="100%" y2="0%">
      <stop offset="0%" stop-color="#0B4DA2"/>
      <stop offset="100%" stop-color="#0B90A4"/>
    </linearGradient>
  </defs>

  <!-- ola base -->
  <path d="M-20,432 C40,402 80,452 140,422 C200,392 240,452 300,417 C340,397 380,432 400,412 L440,412 L440,470 L-20,470 Z" fill="url(#am-ola)"/>
  <path d="M-20,430 C40,400 80,450 140,420 C200,390 240,450 300,415 C340,395 380,430 400,410" fill="none" stroke="#4FD3D9" stroke-width="4" stroke-linecap="round" opacity="0.85"/>

  <!-- burbujas -->
  <circle cx="40" cy="118" r="9" fill="#4FD3D9" opacity="0.55"/>
  <circle cx="372" cy="298" r="12" fill="#4FD3D9" opacity="0.5"/>
  <circle cx="60" cy="358" r="7" fill="#4FD3D9" opacity="0.5"/>
  <circle cx="360" cy="70" r="8" fill="#4FD3D9" opacity="0.55"/>
  <circle cx="230" cy="-2" r="6" fill="#4FD3D9" opacity="0.5"/>

  <!-- cola (moño de dos lóbulos) -->
  <path d="M110,290 Q70,260 15,240 Q45,270 75,300 Q45,330 25,355 Q70,325 110,290 Z" fill="url(#am-cuerpo)"/>

  <!-- aleta pectoral izquierda (apoyada) -->
  <path d="M140,300 C110,320 85,340 65,345 C50,348 45,355 50,362 C58,372 78,368 100,355 C122,342 138,325 148,308 C152,300 148,295 140,300 Z" fill="url(#am-cuerpo)"/>

  <!-- aleta pectoral derecha (saludando) -->
  <path d="M300,245 C330,215 350,185 375,175 C390,170 400,160 400,155 C400,140 385,120 360,120 C335,120 315,145 305,175 C298,200 296,225 300,245 Z" fill="url(#am-cuerpo)"/>

  <!-- aleta dorsal -->
  <path d="M170,72 C165,40 170,10 195,8 C205,7 210,20 208,35 C224,45 232,60 228,72 C210,78 188,78 170,72 Z" fill="url(#am-cuerpo)"/>

  <!-- cuerpo -->
  <path d="M210,45 C276,45 336,96 341,181 C346,261 331,341 276,371 C246,389 175,389 145,371 C90,341 75,261 80,181 C85,96 145,45 210,45 Z" fill="url(#am-cuerpo)"/>

  <!-- branquias -->
  <path d="M90,196 C99,199 99,204 90,207" fill="none" stroke="#062647" stroke-width="4.5" stroke-linecap="round" opacity="0.55"/>
  <path d="M86,222 C95,225 95,230 86,233" fill="none" stroke="#062647" stroke-width="4.5" stroke-linecap="round" opacity="0.55"/>
  <path d="M85,248 C94,251 94,256 85,259" fill="none" stroke="#062647" stroke-width="4.5" stroke-linecap="round" opacity="0.55"/>

  <!-- careta blanca (rostro) -->
  <ellipse cx="210" cy="234" rx="103" ry="140" fill="#F7FBFC"/>

  <!-- mejillas -->
  <circle cx="128" cy="238" r="17" fill="#FF8FA8" opacity="0.45"/>
  <circle cx="292" cy="238" r="17" fill="#FF8FA8" opacity="0.45"/>

  <!-- cejas -->
  <path d="M138,146 C155,132 180,132 194,142" fill="none" stroke="#0B4DA2" stroke-width="7" stroke-linecap="round"/>
  <path d="M226,142 C240,132 265,132 282,146" fill="none" stroke="#0B4DA2" stroke-width="7" stroke-linecap="round"/>

  <!-- ojos -->
  <ellipse cx="166" cy="178" rx="27" ry="31" fill="#FFFFFF" stroke="#0B2E57" stroke-width="3"/>
  <ellipse cx="254" cy="178" rx="27" ry="31" fill="#FFFFFF" stroke="#0B2E57" stroke-width="3"/>
  <circle cx="170" cy="186" r="13" fill="#0B2E57"/>
  <circle cx="258" cy="186" r="13" fill="#0B2E57"/>
  <circle cx="165" cy="180" r="4.5" fill="#FFFFFF"/>
  <circle cx="253" cy="180" r="4.5" fill="#FFFFFF"/>

  <!-- nariz -->
  <circle cx="210" cy="207" r="3.5" fill="#0B2E57" opacity="0.6"/>

  <!-- boca -->
  <path d="M150,252 Q210,246 270,252 Q286,300 210,326 Q134,300 150,252 Z" fill="#B23A4E"/>
  <path d="M162,256 L176,270 L190,256 Z" fill="#FFFFFF"/>
  <path d="M196,253 L210,268 L224,253 Z" fill="#FFFFFF"/>
  <path d="M230,256 L244,270 L258,256 Z" fill="#FFFFFF"/>

  <!-- pañuelo sol -->
  <path d="M158,373 L262,373 L211,432 Z" fill="#F5B70C"/>
  <circle cx="243" cy="378" r="9" fill="#F5B70C" stroke="#F7FBFC" stroke-width="2.5"/>
  <g stroke="#F5B70C" stroke-width="3" stroke-linecap="round" opacity="0.9">
    <line x1="243" y1="360" x2="243" y2="352"/>
    <line x1="259" y1="368" x2="266" y2="362"/>
    <line x1="261" y1="382" x2="269" y2="382"/>
  </g>
</svg>
